<svg width="32" height="32" xmlns="http://www.w3.org/2000/svg">
    <symbol id="logo" viewBox="0 0 16 17">
        <path fill-rule="evenodd" clip-rule="evenodd" d="M12 0.5H8V4.5H4H0V8.5V12.5V16.5H4H8V12.5H12H16V8.5V4.5V0.5H12ZM4 12.5H8V8.5H12V4.5H8V8.5H4V12.5Z" fill="white"/>
    </symbol>

    <symbol id="figma" viewBox="0 0 14 20" >
        <path d="M7 10C7 9.11594 7.36875 8.2681 8.02513 7.64298C8.6815 7.01786 9.57174 6.66667 10.5 6.66667C11.4283 6.66667 12.3185 7.01786 12.9749 7.64298C13.6313 8.2681 14 9.11594 14 10C14 10.8841 13.6313 11.7319 12.9749 12.357C12.3185 12.9821 11.4283 13.3333 10.5 13.3333C9.57174 13.3333 8.6815 12.9821 8.02513 12.357C7.36875 11.7319 7 10.8841 7 10ZM0 16.6667C0 15.7826 0.368749 14.9348 1.02513 14.3096C1.6815 13.6845 2.57174 13.3333 3.5 13.3333H7V16.6667C7 17.5507 6.63125 18.3986 5.97487 19.0237C5.3185 19.6488 4.42826 20 3.5 20C2.57174 20 1.6815 19.6488 1.02513 19.0237C0.368749 18.3986 0 17.5507 0 16.6667ZM7 0V6.66667H10.5C11.4283 6.66667 12.3185 6.31548 12.9749 5.69036C13.6313 5.06523 14 4.21739 14 3.33333C14 2.44928 13.6313 1.60143 12.9749 0.976311C12.3185 0.35119 11.4283 0 10.5 0L7 0ZM0 3.33333C0 4.21739 0.368749 5.06523 1.02513 5.69036C1.6815 6.31548 2.57174 6.66667 3.5 6.66667H7V0H3.5C2.57174 0 1.6815 0.35119 1.02513 0.976311C0.368749 1.60143 0 2.44928 0 3.33333ZM0 10C0 10.8841 0.368749 11.7319 1.02513 12.357C1.6815 12.9821 2.57174 13.3333 3.5 13.3333H7V6.66667H3.5C2.57174 6.66667 1.6815 7.01786 1.02513 7.64298C0.368749 8.2681 0 9.11594 0 10Z" fill="#ABB2BF"/>
    </symbol>

    <symbol id="dribble" viewBox="0 0 23 23">
        <path fill-rule="evenodd" clip-rule="evenodd" d="M11.5 0C5.152 0 0 5.152 0 11.5C0 17.848 5.152 23 11.5 23C17.8365 23 23 17.848 23 11.5C23 5.152 17.8365 0 11.5 0ZM19.0958 5.3015C20.5115 7.02546 21.2951 9.18167 21.3167 11.4123C20.9918 11.3505 17.7488 10.6892 14.4814 11.1004C14.4066 10.9394 14.3434 10.764 14.2686 10.5901C14.0688 10.1157 13.8446 9.62981 13.6203 9.16694C17.2371 7.69637 18.8844 5.57606 19.0972 5.30006L19.0958 5.3015ZM11.5 1.69625C13.9941 1.69625 16.2768 2.63063 18.0119 4.16587C17.8365 4.416 16.3516 6.39831 12.8599 7.70787C11.2499 4.75238 9.46737 2.33162 9.19281 1.95788C9.94909 1.78129 10.7234 1.69349 11.5 1.69625ZM7.32119 2.61913C8.63747 4.44338 9.85348 6.33793 10.9638 8.29438C6.37387 9.51625 2.32012 9.49181 1.88312 9.49181C2.19917 8.00504 2.85438 6.61137 3.79766 5.41949C4.74094 4.22761 5.9468 3.26973 7.32119 2.62056V2.61913ZM1.67181 11.5144V11.2125C2.09588 11.2269 6.86119 11.2887 11.7631 9.81669C12.0491 10.3644 12.3108 10.9264 12.5609 11.4871L12.1728 11.5992C7.10988 13.2336 4.416 17.6985 4.19031 18.0737C2.56856 16.2734 1.67131 13.936 1.67181 11.5129V11.5144ZM11.5 21.3282C9.31723 21.3316 7.19639 20.6027 5.47687 19.2582C5.64937 18.8959 7.64606 15.0549 13.1833 13.1215C13.2092 13.1086 13.2207 13.1086 13.2466 13.0971C14.1801 15.5068 14.8814 18.0002 15.341 20.5433C14.1277 21.0646 12.8205 21.3318 11.5 21.3282ZM16.9769 19.6449C16.8763 19.0454 16.3516 16.1776 15.0679 12.6471C18.1484 12.1613 20.8423 12.9591 21.1787 13.0712C20.9692 14.3975 20.4876 15.6662 19.7643 16.7974C19.0409 17.9287 18.0914 18.8982 16.9754 19.6449H16.9769Z" fill="#ABB2BF"/>
    </symbol>

    <symbol id="github" viewBox="0 0 21 20">
        <path d="M10.5 0C4.69875 0 0 4.58819 0 10.2529C0 14.7899 3.00562 18.6219 7.17937 19.9804C7.70437 20.0701 7.90125 19.7625 7.90125 19.4934C7.90125 19.2499 7.88813 18.4425 7.88813 17.5838C5.25 18.058 4.5675 16.9558 4.3575 16.3791C4.23938 16.0843 3.7275 15.1743 3.28125 14.9308C2.91375 14.7386 2.38875 14.2644 3.26813 14.2516C4.095 14.2388 4.68563 14.9949 4.8825 15.3025C5.8275 16.8533 7.33688 16.4175 7.94063 16.1484C8.0325 15.4819 8.30812 15.0334 8.61 14.777C6.27375 14.5207 3.8325 13.6364 3.8325 9.71466C3.8325 8.59965 4.23938 7.67689 4.90875 6.95918C4.80375 6.70286 4.43625 5.65193 5.01375 4.24215C5.01375 4.24215 5.89313 3.97301 7.90125 5.29308C8.74125 5.06239 9.63375 4.94704 10.5263 4.94704C11.4188 4.94704 12.3113 5.06239 13.1513 5.29308C15.1594 3.9602 16.0387 4.24215 16.0387 4.24215C16.6163 5.65193 16.2488 6.70286 16.1438 6.95918C16.8131 7.67689 17.22 8.58684 17.22 9.71466C17.22 13.6492 14.7656 14.5207 12.4294 14.777C12.81 15.0975 13.1381 15.7126 13.1381 16.6738C13.1381 18.0452 13.125 19.1474 13.125 19.4934C13.125 19.7625 13.3219 20.0829 13.8469 19.9804C15.9314 19.2935 17.7428 17.9854 19.026 16.2403C20.3092 14.4953 20.9996 12.4012 21 10.2529C21 4.58819 16.3013 0 10.5 0Z" fill="#ABB2BF"/>
    </symbol>
    <symbol id="lineVertical">
        <path fill-rule="evenodd" clip-rule="evenodd" d="M0.499992 191L0.5 -4.37114e-08L1.5 0L1.49999 191L0.499992 191Z" fill="#ABB2BF" />
    </symbol>
    <symbol id="discord" viewBox="0 0 32 32">
         <path d="M24.1641 7.65906C22.543 6.87826 20.8325 6.32099 19.0751 6.00114C19.0592 5.99832 19.0428 6.00076 19.0283 6.0081C19.0137 6.01544 19.0017 6.02733 18.9938 6.04214C18.7735 6.45211 18.5298 6.98835 18.3595 7.40816C16.4651 7.10643 14.5383 7.10643 12.6439 7.40816C12.4539 6.9405 12.239 6.48443 12.0002 6.04214C11.9922 6.02749 11.9801 6.01574 11.9656 6.00842C11.9511 6.0011 11.9348 5.99856 11.9189 6.00114C10.1611 6.31928 8.45021 6.87684 6.82991 7.65906C6.81605 7.66461 6.80445 7.67504 6.7971 7.68858C3.55651 12.7706 2.66745 17.7279 3.10339 22.623C3.10495 22.6459 3.11901 22.6689 3.1362 22.6836C5.02325 24.1507 7.13396 25.2708 9.37832 25.9962C9.39417 26.0014 9.4112 26.0013 9.42693 25.9957C9.44267 25.99 9.45629 25.9793 9.46582 25.965C9.94707 25.2763 10.3752 24.5498 10.7439 23.7856C10.7516 23.7699 10.7543 23.752 10.7514 23.7345C10.7486 23.7171 10.7405 23.7011 10.7283 23.6889C10.7202 23.6809 10.7107 23.6747 10.7002 23.6708C10.027 23.3993 9.37503 23.0731 8.7502 22.6951C8.73275 22.6847 8.71977 22.6677 8.71395 22.6476C8.70814 22.6274 8.70993 22.6057 8.71895 22.5869C8.72427 22.5747 8.73231 22.564 8.74239 22.5557C8.87364 22.4524 9.00489 22.3442 9.12989 22.236C9.14093 22.2266 9.15418 22.2206 9.16821 22.2186C9.18225 22.2166 9.19655 22.2186 9.20957 22.2245C13.3017 24.1858 17.7314 24.1858 21.7735 22.2245C21.787 22.2183 21.8018 22.2162 21.8164 22.2182C21.831 22.2202 21.8448 22.2264 21.8563 22.236C21.9813 22.3442 22.1126 22.4524 22.2438 22.5557C22.2544 22.5639 22.263 22.5747 22.2687 22.5872C22.2744 22.5996 22.277 22.6134 22.2764 22.6272C22.2758 22.641 22.2719 22.6544 22.2651 22.6663C22.2584 22.6781 22.2489 22.688 22.2376 22.6951C21.6142 23.0765 20.9614 23.4024 20.286 23.6692C20.2752 23.6733 20.2655 23.6798 20.2574 23.6883C20.2493 23.6968 20.243 23.7071 20.2391 23.7184C20.2355 23.7294 20.2341 23.741 20.2349 23.7525C20.2357 23.7641 20.2387 23.7754 20.2438 23.7856C20.6188 24.5482 21.0485 25.2763 21.5204 25.965C21.5299 25.9793 21.5435 25.99 21.5593 25.9957C21.575 26.0013 21.592 26.0014 21.6079 25.9962C23.856 25.2731 25.9701 24.1528 27.8594 22.6836C27.8688 22.6768 27.8767 22.6677 27.8824 22.6572C27.8881 22.6467 27.8914 22.635 27.8922 22.623C28.4141 16.9637 27.0188 12.0474 24.1954 7.69022C24.1925 7.68302 24.1883 7.67653 24.1829 7.67116C24.1775 7.66579 24.1711 7.66167 24.1641 7.65906ZM11.3549 19.6417C10.1221 19.6417 9.10801 18.4544 9.10801 16.9982C9.10801 15.5403 10.1033 14.353 11.3549 14.353C12.6158 14.353 13.6205 15.5502 13.6017 16.9982C13.6017 18.4544 12.6064 19.6417 11.3549 19.6417ZM19.661 19.6417C18.4298 19.6417 17.4142 18.4544 17.4142 16.9982C17.4142 15.5403 18.4095 14.353 19.661 14.353C20.922 14.353 21.9282 15.5502 21.9079 16.9982C21.9079 18.4544 20.922 19.6417 19.661 19.6417Z" fill="#ABB2BF"/>
    </symbol>
    <symbol id="email" viewBox="0 0 32 32">
        <path d="M5.07187 9.20292C5.2168 8.57709 5.57307 8.01832 6.08232 7.6181C6.59158 7.21789 7.22365 6.99996 7.875 7H25.125C25.7764 6.99996 26.4084 7.21789 26.9177 7.6181C27.4269 8.01832 27.7832 8.57709 27.9281 9.20292L16.5 16.0865L5.07187 9.20292ZM5 10.8207V20.8847L13.3418 15.8442L5 10.8207ZM14.7189 16.6758L5.27456 22.3807C5.50791 22.8657 5.87619 23.2753 6.33656 23.5619C6.79693 23.8486 7.33044 24.0005 7.875 24H25.125C25.6695 24.0001 26.2028 23.8479 26.6629 23.561C27.123 23.274 27.491 22.8643 27.724 22.3793L18.2796 16.6744L16.5 17.7468L14.7189 16.6744V16.6758ZM19.6582 15.8457L28 20.8847V10.8207L19.6582 15.8442V15.8457Z" fill="#ABB2BF"/>
    </symbol>
</svg>

